<svg id="Layer_1" data-name="Layer 1" xmlns="http://www.w3.org/2000/svg" viewBox="0 0 63.19 63.19"><defs><style>.cls-1{fill:#231f20;}</style></defs><title>sight</title><path class="cls-1" d="M32,.41A31.59,31.59,0,1,0,63.59,32,31.63,31.63,0,0,0,32,.41Zm.4,3A28.67,28.67,0,0,1,60.64,31.6H58.18A26.22,26.22,0,0,0,32.4,5.82ZM57.13,31.6H53.25V26.85H53V31.6H49.56v-2.1h-.26v2.1H45.86V28.24H45.6V31.6H42.1v-2.1h-.26v2.1h-3.5V28.24h-.26V31.6h-2.4a3.7,3.7,0,0,0-3.28-3.28V26h3.47v-.26H32.4v-3.5h2.19V22H32.4V18.5h3.47v-.26H32.4V14.8h2.19v-.26H32.4V11.11h4.85v-.26H32.4v-4A25.16,25.16,0,0,1,57.13,31.6ZM32.4,53.35h4.85v-.26H32.4V49.66h2.19v-.26H32.4V46h3.47V45.7H32.4V42.2h2.19v-.26H32.4v-3.5h3.47v-.26H32.4v-2.5a3.7,3.7,0,0,0,3.28-3.28h2.4V36h.26V32.4h3.5v2.29h.26V32.4h3.5V36h.26V32.4h3.43v2.29h.26V32.4H53v5h.26v-5h3.87A25.16,25.16,0,0,1,32.4,57.13ZM25.66,28.24V31.6h-3.5v-2.1H21.9v2.1H18.4V28.24h-.26V31.6H14.71v-2.1h-.26v2.1H11V26.85h-.26V31.6H6.87A25.16,25.16,0,0,1,31.6,6.87v4H26.75v.26H31.6v3.43H29.41v.26H31.6v3.43H28.14v.26H31.6V22H29.41v.26H31.6v3.5H28.14V26H31.6v2.3a3.7,3.7,0,0,0-3.28,3.28h-2.4V28.24ZM32.4,31.6V29.13a2.91,2.91,0,0,1,2.48,2.48Zm2.48.79a2.91,2.91,0,0,1-2.48,2.48V32.4ZM31.6,29.13V31.6H29.13A2.91,2.91,0,0,1,31.6,29.13Zm0,3.27v2.48a2.91,2.91,0,0,1-2.48-2.48Zm0-29V5.82A26.22,26.22,0,0,0,5.82,31.6H3.36A28.67,28.67,0,0,1,31.6,3.36Zm0,57.27A28.67,28.67,0,0,1,3.36,32.4H5.82A26.22,26.22,0,0,0,31.6,58.18ZM6.87,32.4h3.87v5H11v-5h3.43v2.29h.26V32.4h3.43V36h.26V32.4h3.5v2.29h.26V32.4h3.5V36h.26V32.4h2.4a3.7,3.7,0,0,0,3.28,3.28v2.5H28.14v.26H31.6v3.5H29.41v.26H31.6v3.5H28.14V46H31.6v3.43H29.41v.26H31.6v3.43H26.75v.26H31.6v3.77A25.16,25.16,0,0,1,6.87,32.4ZM32.4,60.64V58.18A26.22,26.22,0,0,0,58.18,32.4h2.45A28.67,28.67,0,0,1,32.4,60.64Z" transform="translate(-0.41 -0.41)"/></svg>